<?xml version="1.0" standalone="yes"?>
<svg width="880px" height="200px" viewBox="0 0 880 200" version="1.1" xmlns="http://www.w3.org/2000/svg" xmlns:xlink="http://www.w3.org/1999/xlink">
    <g id="Page-1" stroke="none" stroke-width="1" fill="none" fill-rule="evenodd">
        <g id="gent-skyline" fill="#000000" fill-rule="nonzero">
            <path d="M334.012,41 C333.197,45.7611 331.397,50.1397 331,55 C328.368,52.3658 327.255296,41.4243 325.890296,38 C319.717296,49.5262 321.144,70.3979 320.836,83 C320.428,99.621 320.86,116.315 319.957,133 C319.666,138.371 318.192,143.57 318,149 C317.178,146.351 317.099,143.822 315,142 C315.234,146.534 313.827,150.564 313.684,155 C313.318,166.292 315,177.664 315,189 L312,189 C312,181.227 313.152,172.841 312.571,165.17 C311.893,156.21 309.829,146.868 308,138 C307.315,139.248 307.251,139.548 307,141 C305.224,137.309 305.012,134.061 305,130 L303,130 L302,141 L299,141 L299,137 C298.317,138.506 298.174,139.315 298,141 C291.732,135.025 294.003,124.004 294,116 C293.992,96.305 290.533,76.7184 291.015,57 C291.2,49.4244 289.971,43.4761 288.754,36 C288.229,32.7749 288.515,29.1954 286,27 C286.377,33.4408 284.839,39.6423 284,46 C279.949,40.6228 272.79,40.1093 269,46 C267.191,40.0454 266.129,33.234 266,27 C263.987,30.3588 263.894,34.1865 263.206,38 C261.787,45.869 261,52.9851 261,61 C261,71.5726 259.93,81.5934 259.093,92 C258.56,98.64 259.315,105.351 258.845,112 C258.376,118.632 258.092,125.344 257.996,132 C257.957,134.717 258.095,138.232 255.566,139.972 C252.862,141.833 248.116,141 245,141 L245,137 C244.317,138.506 244.174,139.315 244,141 L241,141 L240,132 L238,132 C236.554,150.318 237,168.581 237,187 L233,187 C233,174.389 231.233,160.099 235,148 C232.37,144.787 232.228,140.881 231,137 C230.015,139.332 230.019,141.457 230,144 L228,144 C228.001,138.618 228.369,134.783 231,130 C224.584,129.667 219.089,126.382 213,124.59 C209.219,123.477 205.143,122.575 203.028,118.826 C199.995,113.451 203.024,105.787 202.22,100 C201.545,95.144 199.592,87.9101 196.581,84.0154 C194.384,81.1735 191.128,79.4757 188.903,76.7145 C186.034,73.1546 187.8,67.6068 183,66 L182.571034,62.9180083 C182.350654,64.4249427 182.031,64.1682 182,66 C177.76,68.6237 179.153,72.1766 176.641,75.9606 C174.056,79.8551 169.538,81.9182 166.995,86.0008 C164.433,90.113 164.85,95.258 162,99 C162.703,104.518 164.843,113.738 161.972,118.826 C159.857,122.575 155.781,123.477 152,124.59 C145.966,126.365 140.258,129.076 134,130 C136.475,134.876 136.999,138.539 137,144 L135,144 L135,137 L133,137 C132.91,141.332 132.903,145.54 129,148 C133.721,160.097 132,174.108 132,187 L127,187 C127,178.088 126.325,168.874 127.17,160 C127.751,153.89 129.772,145.09 128.111,139.105 C126.778,134.302 118.925,130.692 116.224,126 C113.335,120.983 112.16,114.539 110.579,109 C108.333,101.132 105.194,93.088 104,85 L102,85 C100.977,97.527 97.174,112.049 93.2508,124 C91.5039,129.321 88.9387,134.191 84,137 C84,132.112 82.5937,122.193 77,121 L78,117 C73.7773,114.485 72.0397,108.647 71,104 L68,104 C67.5904,100.833 66.6097,98.213 67,95 L63,95 L61,104 L58,104 C56.9603,108.647 55.2227,114.485 51,117 C50.9727,119.379 50.9401,119.683 49,121 L50,125 C45.2569,126.016 45,132.842 45,137 C36.775,131.067 35.3171,122.286 33.1157,113 C30.9133,103.71 28.2253,94.488 27,85 L25,85 C23.7058,93.763 20.2652,102.515 17.7199,111 C16.2451,115.917 15.3891,121.447 12.9506,125.996 C10.2558,131.024 2.31237,133.956 0.88889,139.104 C-0.87962,145.5 0.88889,187.084 0.88889,200 L882,200 C881.506,190.361 883.732,143.319 882,129 C880.387,115.658 869.589,101.694 869,88 C867.789,90.884 868.09,93.922 867.535,97 C866.62,102.08 864.692,106.865 864,112 C859.532,108.853 855.938,104.813 852,101.039 C849.688,98.824 846.57,96.784 845.028,93.91 C843.562,91.18 844.216,87.9502 843.79,85 C842.958,79.2325 841.656,73.8386 841,68 C839.584,68.472 839.186,68.8138 838,70 C840.743,75.4981 837.255,80.4198 836.326,86 C835.777,89.295 836.42,92.77 835.49,96 C833.835,101.749 826.929,112.918 821.7,115.972 C818.282,117.969 812.805,117 809,117 L779,117 C778.373,114.064 777.853,112.987 775,112 C772.545,116.452 768.661,115.996 764,116 C763.169,99.772 754.136,84.4649 754,68 C752.07,72.5559 752.282,78.1386 751.102,83 C748.478,93.803 744.674,104.301 742,115 C739.781,109.776 738.115,103.66 739,98 C737.241,95.692 737.083,93.908 737,91 C735.79,93.882 736.081,96.922 735.536,100 C734.638,105.073 732.75,109.905 732,115 C726.926,115 719.058,116.717 716,112 C712.903,112.88 710.289,114.675 706.996,114.942 C702.239,115.328 696.55,113.926 692,115.603 C685.344,118.057 681.381,128.347 674.058,129.093 C671.078,129.397 670.082,126.267 669.39,123.995 C667.485,117.744 666.054,111.55 666,105 C664.152,109.403 664.092,115.223 663,120 C658.23,110.498 656.029,97.58 656,87 C654.095,91.538 654.708,97.209 653.59,102.09 C651.399,111.658 646.287,122.326 646,132 L639,133 L639,170 L637,170 L637,116 L635,116 C634.826,118.613 634.582,119.943 633,122 L631.196189,118.826 C628.422189,115.757 631.308,111.459 628,109 L627,106 C625.945,104.276 626.964,104.079 627,102 C625.056,101.598 624.944,101.598 623,102 C623.261,105.088 623.001,106.632 621,109 C620.823,110.645 620.859,110.647 620,112 C618.464667,116.728 617.464667,120.061333 617,122 C614.078,112.115 616.217,100.121 616.911,90 C617.27,84.7534 616.105,80.08 620,76 C618.752,75.3152 618.452,75.2512 617,75 C617,69.2428 617.054,63.6789 616,58 C615.126,60.052 615.047,61.7472 615,64 L613,64 C612.954,50.4334 605.591,37.7243 605,24 L603,24 C603,33.6938 603.728,48.2735 597,56 C597.64,58.9339 597.64,61.0661 597,64 C596.356,61.8941 596.094,60.2049 596,58 C592.729,63.2575 597.883,71.1859 592,75 C596.444,79.3182 595.487,83.287 596.129,89 C597.226,98.765 597.973,108.05 598,118 C592.456,114.513 588.453,114 582,114 L579.448731,106 C576.648731,107.948 579.101,112.039 575.782,113.411 C572.656,114.704 568.312,114 565,114 L544,114 L544,95 C542.849,96.674 542.415,98 542,100 C535.664,94.039 536.029,87.1399 535,79 C533.778,81.2833 533.348,83.4278 533,86 C531.842,83.5383 531.666,82.5683 529,82 L527.722001,77.8904691 C525.486001,75.0177691 527.732,72.2372 524,71 C523.838,76.5415 520.711,80.6624 520,86 L518,86 C517.891,83.558 517.572,81.3772 517,79 C515.124,83.4714 516,89.183 516,94 L513,94 C512.266,96.857 511.331,98.191 509,100 L509,95 L507,95 L507,114 L485,114 C480.995,113.998 477.334,114.6 475,111 C474.315,112.248 474.251,112.548 474,114 C473.19,111.271 473.021,108.85 473,106 L471,106 C471,112.245 470.151,115.053 466.167,120 C464.436,122.148 463.581,124.807 461,123 L460,129 C455.937,121.387 458.904,112.242 458.391,104 C457.998,97.686 455.084,92.451 456,86 C452.607,88.9498 452.024,97.533 451,102 C445.218,84.9208 444.812,65.6278 442,48 C439.893,51.5177 440.324,55.0665 439.675,59 C438.91,63.6383 437.513,68.4653 436.255,73 C433.68,82.2781 430.243,91.597 428.21,101 C427.637,103.648 428.208,106.33 427.688,108.961 C427.188,111.483 425.469,113.506 425.158,116.09 C424.637,120.432 426.595,124.704 426.91,129 C427.491,136.927 427,145.052 427,153 L425,153 L424,144 C422.339,144.208 422.46,144.495 422,143 C414.348,145.932 406.098,145 398,145 L359,145 C359,117.252 359.508,89.655 357.957,62 C357.496,53.7833 354.001,46.5112 354,38 C351.847,43.131 351.328,50.3936 350,56 C346.331,48.6902 345.623,40.9353 344.536,33 C343.706,26.937 341.859,21.0553 341.001,15 C340.323,10.2221 340.843,4.3931 339,0 C339,13.6191 336.295,27.6599 334.012,41 Z" id="Shape"></path>
        </g>
    </g>
</svg>
