
<svg width="100px" height="80px" viewBox="0 0 100 80" version="1.1" xmlns="http://www.w3.org/2000/svg" xmlns:xlink="http://www.w3.org/1999/xlink">
    <g id="Page-1" stroke="none" stroke-width="1" fill="none" fill-rule="evenodd">
        <g id="Group-2" transform="translate(-84.000000, -38.000000)">
            <g id="Group-3" transform="translate(84.000000, 38.000000)">
                <path d="M68.1347692,49.3538462 C65.9181538,47.664 64.3649231,45.3636923 62.5790769,43.2787692 C61.6916923,42.2449231 60.8990769,41.0190769 60.2455385,39.8289231 C58.808,37.2098462 57.3396923,33.7649231 59.8369231,31.2369231 C61.416,29.6356923 63.0984615,29.6233846 64.984,31.216 C66.3058462,32.3298462 67.2769231,33.76 68.3833846,35.0658462 C68.9089231,35.5938462 70.5261538,37.1778462 70.2307692,35.7132308 C70.0596923,34.8750769 69.4787692,32.8713846 69.5267692,31.5630769 C69.592,29.888 69.5649231,29.3563077 70.1876923,27.7575385 C70.7723077,26.2572308 71.9550769,25.0387692 73.1390769,23.9926154 C74.6123077,22.6916923 76.088,21.392 77.5550769,20.0824615 C80.2283077,17.696 82.5384615,15.0572308 84.5384615,12.0812308 C85.4356923,10.7483077 86.4756923,9.21846154 86.6172308,7.57169231 C86.7156923,6.41723077 86.0695385,4.45415385 85.0135385,3.80184615 C83.4098462,2.81353846 81.72,3.61969231 80.3550769,4.63630769 C79.8024615,5.04738462 79.3286154,5.56676923 78.8412308,6.06153846 C77.5772308,7.35015385 76.3796923,8.71015385 75.0603077,9.93846154 C71.8775385,12.8972308 68.2406154,15.2221538 64.1950769,16.8086154 C56.5249231,19.8141538 48.2467692,20.5033846 40.2295385,22.0996923 C37.0135385,22.7396923 33.8615385,23.6295385 30.9126154,25.1212308 C30.3575385,25.4018462 30.0449231,25.6135385 30.7636923,26.0504615 C35.608,27.1901538 40.4843077,28.112 45.4824615,28.2584615 C46.6246154,28.2916923 47.4492308,28.7803077 47.7064615,30.0295385 C48.3193846,33.0006154 48.5236923,36.1476923 48.5643077,39.1766154 C48.5926154,41.1815385 48.1532308,43.232 48.3021538,45.2221538 C48.3698462,46.0947692 48.9409231,45.792 49.4098462,45.6886154 C51.9969231,45.1261538 55.9169231,46.4984615 57.5784615,48.576 C59.2781538,50.7015385 59.7704615,53.9273846 58.7255385,56.4529231 C58.6246154,56.6953846 57.992,57.4990769 58.2356923,57.7083077 C58.6996923,58.0996923 60.1126154,56.9009231 60.5236923,56.6436923 C61.7421538,55.8818462 62.9606154,55.1335385 64.088,54.2375385 C65.9218462,52.7753846 67.8024615,51.6393846 70.0732308,54.1033846 C69.8406154,52.7692308 70.136,51.7698462 69.7827692,50.8073846 C69.2326154,50.3249231 68.6824615,49.84 68.1347692,49.3538462 Z" id="Path" fill="#000000"></path>
                <path d="M99.0553846,28.512 C97.2498462,27.5187692 96.712,27.6123077 95.6990769,29.3587692 C94.6344615,31.1987692 93.7372308,33.136 92.6652308,34.9723077 C90.1532308,39.2701538 87.0258462,42.8418462 81.7704615,43.7575385 C80.8756923,43.9138462 79.8861538,43.9163077 78.9815385,43.8732308 C77.8110769,43.8129231 76.5458462,43.5052308 75.4652308,43.0707692 C71.2683077,41.3932308 68.6676923,37.392 65.7987692,34.1366154 C65.3446154,33.6196923 64.9138462,33.0806154 64.424,32.5956923 C63.6043077,31.7833846 62.696,31.2935385 61.5563077,31.7452308 C60.4412308,32.1858462 59.8566154,33.1003077 59.7433846,34.2707692 C59.6473846,35.2590769 60.0412308,36.2707692 60.3944615,37.1716923 C61.1563077,39.0953846 62.3698462,40.8984615 63.6473846,42.5132308 C64.1544615,43.1544615 64.6787692,43.7821538 65.2141538,44.3975385 C66.1926154,45.52 67.2116923,46.6018462 68.2603077,47.6566154 C69.2190769,48.6227692 70.1901538,49.7575385 71.3175385,50.5316923 C71.8726154,50.912 72.5913846,51.1064615 72.6295385,51.8941538 C72.7981538,55.1729231 72.9950769,58.4516923 73.1292308,61.7329231 C73.2978462,65.8289231 73.5476923,69.9175385 73.896,74.0024615 C76.7969231,72.5476923 79.5476923,70.8221538 82.1286154,68.8701538 C82.1458462,68.7692308 82.2098462,68.7187692 82.232,68.7913846 C85.1193846,66.5993846 87.7926154,64.1181538 90.2012308,61.3784615 C90.1507692,58.3273846 90.0547692,55.2750769 89.9415385,52.224 C89.8935385,50.976 90.1704615,50.0529231 91.0910769,49.152 C94.296,46.0147692 97.0233846,42.5267692 98.4707692,38.1944615 C99.2523077,35.856 99.6707692,33.44 99.8381538,30.9858462 C99.9033846,30.0836923 99.5526154,29.2627692 99.0553846,28.512 Z" id="Path" fill="#74AF10"></path>
                <path d="M28.5003077,21.9569231 C32.68,21.9569231 36.0695385,18.5661538 36.0695385,14.3852308 C36.0695385,10.2055385 32.68,6.81476923 28.5003077,6.81476923 C24.3181538,6.81476923 20.9286154,10.2055385 20.9286154,14.3852308 C20.9286154,18.5661538 24.3181538,21.9569231 28.5003077,21.9569231 Z" id="Path" fill="#000000"></path>
                <path d="M79.4110769,29.0338462 C76.36,28.9723077 72.6972308,31.936 73.2043077,35.4929231 C73.7089231,39.0252308 75.9833846,41.9532308 79.4110769,41.9532308 C82.8387692,41.9532308 85.6153846,39.0609231 85.6153846,35.4929231 C85.6153846,31.9249231 83.3852308,29.1113846 79.4110769,29.0338462 Z" id="Path" fill="#74AF10"></path>
                <path d="M45.6756923,8.65846154 C46.1803077,13.1483077 49.336,16.8381538 53.8529231,16.8381538 C58.3723077,16.8381538 62.0326154,13.1766154 62.0326154,8.65846154 C62.0326154,4.14153846 57.7249231,0 53.208,0 C48.6910769,0 45.1526154,4.02830769 45.6756923,8.65846154 Z" id="Path" fill="#000000"></path>
                <path d="M51.5452308,58.928 C54.6393846,58.6953846 57.1624615,56.3581538 57.1624615,53.1876923 C57.1624615,50.0196923 54.648,47.4498462 51.5452308,47.4498462 C48.4449231,47.4498462 45.8049231,48.7741538 45.5501538,52.6227692 C45.3421538,55.7870769 47.6178462,59.2295385 51.5452308,58.928 Z" id="Path" fill="#FFD500"></path>
                <path d="M61.2572308,57.7427692 C59.8775385,58.7766154 58.2332308,59.6676923 56.5889231,60.192 C50.3649231,62.1747692 43.7987692,59.7809231 38.1470769,57.1901538 C37.4615385,56.8750769 36.76,56.7286154 36.1569231,57.0609231 C35.4886154,57.4313846 35.7175385,58.2264615 35.7889231,58.8467692 C35.8972308,59.7772308 36.328,60.5895385 36.9913846,61.2529231 C39.3643077,63.6086154 42.056,65.4953846 45.1452308,66.8061538 C46.5753846,67.4141538 46.1163077,69.9507692 46.1261538,71.1446154 C46.1458462,73.8436923 46.2049231,76.5513846 46.2873846,79.2553846 C47.7704615,79.3833846 49.2621538,79.4646154 50.7772308,79.4646154 C54.0252308,79.4646154 57.1981538,79.1446154 60.2849231,78.5673846 C60.3070769,75.0535385 60.3476923,71.536 60.2775385,68.0246154 C60.2418462,66.2867692 60.7832077,65.3956238 62.1889231,64.4910769 C63.5946384,63.5865301 64.3932308,62.6756923 65.4196923,61.7021538 C67.0861538,60.1230769 68.7661538,57.9593846 68.5778462,55.5310769 C68.2812308,51.6418462 62.36,56.9144615 61.2572308,57.7427692 Z" id="Path" fill="#FFD500"></path>
                <path d="M34.529482,55.9144581 C34.6671931,55.362644 35.6416152,54.8594352 36.7180891,54.9864785 C33.361624,49.8756518 31.6734318,37.9800144 32.9729589,37.1741137 C34.2802444,36.3623941 42.2814249,36.856466 45.6243129,34.6162364 C46.8229811,33.8122753 46.9945914,31.6787312 46.3642238,30.5692842 C45.687306,29.3764347 44.0548217,29.5408467 42.815422,29.4458066 C40.8767991,29.296458 38.9604815,28.9938815 37.0509525,28.6369965 C31.1972618,27.5430662 25.482252,25.9555096 20.6323005,22.3468974 C16.7220816,19.4375084 14.5623452,15.3701825 12.753675,11.0284043 C11.7111439,8.52632976 10.7432872,5.98934253 9.41563598,3.61722068 C8.91910026,2.72888723 8.11707868,2.3933377 7.12206764,2.50777367 C6.13966395,2.62123984 5.63343026,3.26033563 5.30951828,4.12830335 C4.96621037,5.04767028 4.97202915,6.00582907 5.03021693,6.9504107 C5.15144147,8.99668098 5.42686364,11.0342231 5.86327199,13.0378223 C6.61874334,16.5164818 7.84262632,19.8729469 9.45830702,23.044181 C10.7151631,25.5123127 12.5878398,27.6904752 13.4509586,30.3642038 C14.1282835,32.4589017 13.2079054,38.5787553 14.5,38.6947045 C18.7407394,39.0752572 21.8110278,41 21.8110278,46.4184356 C21.8110278,47.1160551 25.3151022,40.7816032 26.5999576,40.7816032 C27.8848129,40.7816032 28.4420839,40.567565 29.6130948,42 C30.2034476,42.722147 30.1690634,44.1194693 30.0312453,45.7568119 C29.8956905,47.3672661 29.6670941,49.2093297 29,50.9399191 C28.0267997,53.4646154 25.4732956,56.1730393 23.4992577,58.5 C22.3539843,59.8500278 23.879857,66.2209415 22.8432096,67.3023423 C20.770961,69.4640527 20.9769973,69.445253 20.9286154,69.8797528 C20.721079,71.7320638 26.9320975,72.5978646 29.1936626,73.6336071 C29.8540939,73.9371533 34.0504026,75.4500356 34.0639798,75.6643606 C36.6184233,74.0738946 40.6235068,69.4446845 42.1567548,66.7903519 C40.2074642,65.3453554 38.9585419,64.5770633 37.0509525,63.0360569 C33.9068728,60.4942207 34.2753954,56.9395329 34.529482,55.9144581 Z" id="Path" fill="#000000"></path>
                <path d="M20,45.9987412 C20,43.2381672 17.760574,41 15.0012588,41 C12.2406848,41 10,43.2369084 10,45.9987412 C10,48.7618328 12.239426,51 15.0012588,51 C17.7593152,50.9987412 20,48.7618328 20,45.9987412 Z" id="Path" fill="#5790DA"></path>
                <path d="M21.8400021,59.4180376 C21.8076687,58.5257744 22.0068427,57.8626576 22.674205,57.2200233 C24.9879863,54.9746436 26.9603264,52.479635 28.0066367,49.3816766 C28.5731186,47.7059628 28.873173,45.979043 28.9947467,44.22396 C29.0400135,43.5787654 28.7878127,42.9911774 28.4282648,42.4535152 C27.1219936,41.743033 26.7301123,41.8108809 26.0006698,43.0615855 C25.2298405,44.3762976 24.5831716,45.7614178 23.8084622,47.0774101 C21.992616,50.1497655 19.7318616,52.7075013 15.9346219,53.3629371 C15.287953,53.4730299 14.5701505,53.4755902 13.9183083,53.4435865 C13.0724654,53.4013416 12.1580756,53.1811561 11.3743129,52.8713603 C8.34014244,51.6705814 6.46092266,48.8081703 4.3877022,46.4783008 C4.05919441,46.108338 3.74879334,45.7204531 3.39441879,45.3760933 C2.80077675,44.7961862 2.14634784,44.4454256 1.32249167,44.7680229 C0.514155565,45.0829394 0.0925274499,45.7358149 0.01104717,46.5730317 C-0.0600864076,47.2809536 0.225741241,48.0055174 0.483115458,48.6481518 C1.03149067,50.0255911 1.91096036,51.3159804 2.83181686,52.4706739 C3.19783145,52.9302471 3.57677942,53.3782989 3.96348741,53.8186699 C4.67094318,54.623883 5.40814571,55.3958123 6.16604164,56.1510997 C6.86056403,56.8410995 7.56025977,57.6539935 8.3763559,58.2082976 C8.77599728,58.4784089 9.29591906,58.617945 9.32307915,59.1837705 C9.44465291,61.5290018 9.5882134,63.874233 9.68650707,66.2220246 C9.80549414,69.1522836 9.98656143,72.0799822 10.2400556,75 C12.3365562,73.9592396 14.3244163,72.7251769 16.1919961,71.3272552 C16.2049295,71.2542867 16.2101028,71.1825984 16.2217428,71.1121903 C16.2424363,71.1621161 16.2489029,71.2197227 16.264423,71.2722088 C18.3531635,69.7014671 20.2854101,67.9271819 22.0262428,65.965995 C21.9913227,63.7846227 21.9227758,61.60069 21.8400021,59.4180376 Z" id="Path" fill="#5790DA"></path>
            </g>
        </g>
    </g>
</svg>
