<svg width="78px" height="65px" viewBox="0 0 78 65" version="1.1" xmlns="http://www.w3.org/2000/svg" xmlns:xlink="http://www.w3.org/1999/xlink">
    <g id="Page-1" stroke="none" stroke-width="1" fill="none" fill-rule="evenodd">
        <path d="M51.297,40.08 C49.496,38.707 48.234,36.838 46.783,35.144 C46.062,34.304 45.418,33.308 44.887,32.341 C43.719,30.213 42.526,27.414 44.555,25.36 C45.838,24.059 47.205,24.049 48.737,25.343 C49.811,26.248 50.6,27.41 51.499,28.471 C51.926,28.9 53.24,30.187 53,28.997 C52.861,28.316 52.389,26.688 52.428,25.625 C52.481,24.264 52.459,23.832 52.965,22.533 C53.44,21.314 54.401,20.324 55.363,19.474 C56.56,18.417 57.759,17.361 58.951,16.297 C61.123,14.358 63,12.214 64.625,9.796 C65.354,8.713 66.199,7.47 66.314,6.132 C66.394,5.194 65.869,3.599 65.011,3.069 C63.708,2.266 62.335,2.921 61.226,3.747 C60.777,4.081 60.392,4.503 59.996,4.905 C58.969,5.952 57.996,7.057 56.924,8.055 C54.338,10.459 51.383,12.348 48.096,13.637 C41.864,16.079 35.138,16.639 28.624,17.936 C26.011,18.456 23.45,19.179 21.054,20.391 C20.603,20.619 20.349,20.791 20.933,21.146 C24.869,22.072 28.831,22.821 32.892,22.94 C33.82,22.967 34.49,23.364 34.699,24.379 C35.197,26.793 35.363,29.35 35.396,31.811 C35.419,33.44 35.062,35.106 35.183,36.723 C35.238,37.432 35.702,37.186 36.083,37.102 C38.185,36.645 41.37,37.76 42.72,39.448 C44.101,41.175 44.501,43.796 43.652,45.848 C43.57,46.045 43.056,46.698 43.254,46.868 C43.631,47.186 44.779,46.212 45.113,46.003 C46.103,45.384 47.093,44.776 48.009,44.048 C49.499,42.86 51.027,41.937 52.872,43.939 C52.683,42.855 52.923,42.043 52.636,41.261 C52.189,40.869 51.742,40.475 51.297,40.08 Z" id="Path" fill="#000000"></path>
        <path d="M76.42,23.146 C74.953,22.339 74.516,22.415 73.693,23.834 C72.828,25.329 72.099,26.903 71.228,28.395 C69.187,31.887 66.646,34.789 62.376,35.533 C61.649,35.66 60.845,35.662 60.11,35.627 C59.159,35.578 58.131,35.328 57.253,34.975 C53.843,33.612 51.73,30.361 49.399,27.716 C49.03,27.296 48.68,26.858 48.282,26.464 C47.616,25.804 46.878,25.406 45.952,25.773 C45.046,26.131 44.571,26.874 44.479,27.825 C44.401,28.628 44.721,29.45 45.008,30.182 C45.627,31.745 46.613,33.21 47.651,34.522 C48.063,35.043 48.489,35.553 48.924,36.053 C49.719,36.965 50.547,37.844 51.399,38.701 C52.178,39.486 52.967,40.408 53.883,41.037 C54.334,41.346 54.918,41.504 54.949,42.144 C55.086,44.808 55.246,47.472 55.355,50.138 C55.492,53.466 55.695,56.788 55.978,60.107 C58.335,58.925 60.57,57.523 62.667,55.937 C62.681,55.855 62.733,55.814 62.751,55.873 C65.097,54.092 67.269,52.076 69.226,49.85 C69.185,47.371 69.107,44.891 69.015,42.412 C68.976,41.398 69.201,40.648 69.949,39.916 C72.553,37.367 74.769,34.533 75.945,31.013 C76.58,29.113 76.92,27.15 77.056,25.156 C77.109,24.423 76.824,23.756 76.42,23.146 Z" id="Path" fill="#74AF10"></path>
        <path d="M19.094,17.82 C22.49,17.82 25.244,15.065 25.244,11.668 C25.244,8.272 22.49,5.517 19.094,5.517 C15.696,5.517 12.942,8.272 12.942,11.668 C12.942,15.065 15.696,17.82 19.094,17.82 Z" id="Path" fill="#000000"></path>
        <path d="M60.459,23.57 C57.98,23.52 55.004,25.928 55.416,28.818 C55.826,31.688 57.674,34.067 60.459,34.067 C63.244,34.067 65.5,31.717 65.5,28.818 C65.5,25.919 63.688,23.633 60.459,23.57 Z" id="Path" fill="#74AF10"></path>
        <path d="M33.049,7.015 C33.459,10.663 36.023,13.661 39.693,13.661 C43.365,13.661 46.339,10.686 46.339,7.015 C46.339,3.345 42.839,-0.02 39.169,-0.02 C35.499,-0.02 32.624,3.253 33.049,7.015 Z" id="Path" fill="#000000"></path>
        <path d="M37.818,47.859 C40.332,47.67 42.382,45.771 42.382,43.195 C42.382,40.621 40.339,38.533 37.818,38.533 C35.299,38.533 33.154,39.609 32.947,42.736 C32.778,45.307 34.627,48.104 37.818,47.859 Z" id="Path" fill="#FFD500"></path>
        <path d="M45.709,46.896 C44.588,47.736 43.252,48.46 41.916,48.886 C36.859,50.497 31.524,48.552 26.932,46.447 C26.375,46.191 25.805,46.072 25.315,46.342 C24.772,46.643 24.958,47.289 25.016,47.793 C25.104,48.549 25.454,49.209 25.993,49.748 C27.921,51.662 30.108,53.195 32.618,54.26 C33.78,54.754 33.407,56.815 33.415,57.785 C33.431,59.978 33.479,62.178 33.546,64.375 C34.751,64.479 35.963,64.545 37.194,64.545 C39.833,64.545 42.411,64.285 44.919,63.816 C44.937,60.961 44.97,58.103 44.913,55.25 C44.884,53.838 45.3238563,53.1139443 46.466,52.379 C47.6081437,51.6440557 48.257,50.904 49.091,50.113 C50.445,48.83 51.81,47.072 51.657,45.099 C51.416,41.939 46.605,46.223 45.709,46.896 Z" id="Path" fill="#FFD500"></path>
        <path d="M23.9927041,45.4104972 C24.1045944,44.9621483 24.8963123,44.5532911 25.7709474,44.6565138 C23.0438195,40.5039671 21.6721633,30.8387617 22.7280291,30.1839673 C23.7901985,29.5244452 30.2911577,29.9258786 33.0072542,28.1056921 C33.9811722,27.4524736 34.1206055,25.7189691 33.6084319,24.8175434 C33.0584361,23.8483532 31.7320426,23.9819379 30.7250303,23.9047179 C29.1498992,23.7833721 27.5928912,23.5375287 26.0413989,23.2475596 C21.2852752,22.3587413 16.6418297,21.0688515 12.7012441,18.1368541 C9.52419131,15.7729756 7.76940545,12.4682733 6.29986093,8.94057851 C5.45280444,6.90764293 4.66642083,4.8463408 3.58770424,2.9189918 C3.18426896,2.19722088 2.53262643,1.92458688 1.72417996,2.0175661 C0.925976956,2.10975737 0.514662083,2.6290227 0.251483601,3.33424647 C-0.0274540712,4.0812321 -0.0227263141,4.85973612 0.0245512575,5.6272087 C0.123046198,7.2898033 0.346826704,8.94530626 0.701408491,10.5732306 C1.31522896,13.3996415 2.30963388,16.1267694 3.62237446,18.703397 C4.64357,20.708754 6.16511985,22.4785111 6.86640383,24.6509155 C10.6698845,36.4135754 9.32720143,49.8262224 8.92061431,53.4776269 C8.75199098,54.9826296 17.8198292,58.965765 19.6573508,59.8073058 C20.1939513,60.0539371 23.6034521,61.2831539 23.6144836,61.457293 C25.689969,60.1650394 28.9440993,56.4038062 30.1898633,54.247161 C28.6060646,53.0731013 27.5913153,52.4488639 26.0413989,51.1967962 C23.4868341,49.1315543 23.7862587,46.2433705 23.9927041,45.4104972 Z" id="Path" fill="#000000"></path>
    </g>
</svg>
