<?xml version="1.0" encoding="UTF-8"?>
<svg width="84px" height="78px" viewBox="0 0 84 78" version="1.1" xmlns="http://www.w3.org/2000/svg" xmlns:xlink="http://www.w3.org/1999/xlink">
    <!-- Generator: Sketch 40 (33762) - http://www.bohemiancoding.com/sketch -->
    <title>pair</title>
    <desc>Created with Sketch.</desc>
    <defs></defs>
    <g id="Page-1" stroke="none" stroke-width="1" fill="none" fill-rule="evenodd">
        <path d="M77.037,4.734 C76.48,5.149 76.004,5.672 75.512,6.17 C74.239,7.469 73.033,8.839 71.701,10.076 C68.498,13.057 64.834,15.399 60.756,16.997 C53.031,20.026 44.692,20.719 36.615,22.328 C33.375,22.973 30.201,23.869 27.228,25.371 C26.669,25.654 26.354,25.868 27.078,26.308 C31.959,27.456 36.872,28.385 41.905,28.533 C43.057,28.567 43.885,29.058 44.145,30.316 C44.762,33.31 44.969,36.48 45.01,39.531 C45.039,41.551 45.01,68.4630135 45.01,68.4630135 C45.1337881,68.4340314 51.9464546,73.3318814 54.235162,75.7019394 C58.1508822,73.4247621 64.7799987,70.0266113 66.795,68.4630135 C66.531,66.9530135 66.03,34.555 66.129,31.859 C66.193,30.171 66.168,29.637 66.795,28.026 C67.383,26.516 68.574,25.287 69.768,24.234 C71.254,22.924 72.739,21.615 74.215,20.296 C76.908,17.892 79.236,15.234 81.25,12.236 C82.154,10.893 83.201,9.352 83.346,7.692 C83.445,6.528 82.795,4.551 81.73,3.895 C80.115,2.899 78.412,3.711 77.037,4.734 Z M24.799,22.182 C29.011,22.182 32.425,18.767 32.425,14.555 C32.425,10.343 29.011,6.928 24.799,6.928 C20.585,6.928 17.171,10.343 17.171,14.555 C17.171,18.767 20.585,22.182 24.799,22.182 L24.799,22.182 Z M50.34,17.027 C54.893,17.027 58.58,13.338 58.58,8.786 C58.58,4.235 54.24,0.063 49.689,0.063 C45.138,0.063 41.572,4.121 42.101,8.786 C42.611,13.309 45.791,17.027 50.34,17.027 L50.34,17.027 Z M29.489,37.783 C30.837,36.946 38.602,37.965 42.049,35.655 C43.285,34.826 43.615,32.347 42.965,31.203 C42.267,29.973 40.916,29.912 39.638,29.814 C37.639,29.66 35.663,29.348 33.694,28.98 C27.658,27.852 21.765,26.215 16.764,22.494 C12.732,19.494 10.505,15.3 8.64,10.823 C7.565,8.243 6.567,5.627 5.198,3.181 C4.686,2.265 3.859,1.919 2.833,2.037 C1.82,2.154 1.298,2.813 0.964,3.708 C0.61,4.656 0.616,5.644 0.676,6.618 C0.801,8.728 1.085,10.829 1.535,12.895 C2.314,16.482 3.576,19.943 5.242,23.213 C6.538,25.758 8.469,28.004 9.359,30.761 C14.186,45.689 12.482,62.711 11.966,67.345 C11.752,69.255 23.26,74.31 25.592,75.378 C26.273,75.691 30.6,77.251 30.614,77.472 C33.248,75.832 38.381,71.133 39.962,68.396 C37.952,66.906 28.149,38.614 29.489,37.783 Z" id="Shape" fill="#000000"></path>
    </g>
</svg>