<?xml version="1.0" encoding="UTF-8"?>
<svg width="84px" height="80px" viewBox="0 0 84 80" version="1.1" xmlns="http://www.w3.org/2000/svg" xmlns:xlink="http://www.w3.org/1999/xlink">
    <!-- Generator: Sketch 45 (43475) - http://www.bohemiancoding.com/sketch -->
    <title>noun_686641_cc</title>
    <desc>Created with Sketch.</desc>
    <defs></defs>
    <g id="Page-1" stroke="none" stroke-width="1" fill="none" fill-rule="evenodd">
        <g id="parents" fill-rule="nonzero" fill="#000000">
            <path d="M81.73,3.895 C80.115,2.899 78.412,3.711 77.037,4.734 C76.48,5.149 76.004,5.672 75.512,6.17 C74.239,7.469 73.033,8.839 71.701,10.076 C68.498,13.057 64.834,15.399 60.756,16.997 C53.031,20.026 44.692,20.719 36.615,22.328 C33.375,22.973 30.201,23.869 27.228,25.371 C26.669,25.654 26.354,25.868 27.078,26.308 C31.959,27.456 36.872,28.385 41.905,28.533 C43.057,28.567 43.885,29.058 44.145,30.316 C44.762,33.31 44.969,36.48 45.01,39.531 C45.039,41.551 44.756,46.387 44.756,46.387 C45.008,46.328 45.389,46.195 45.863,46.091 C48.467,45.524 52.418,46.906 54.092,48.998 C55.803,51.14 56.299,54.389 55.246,56.934 C55.144,57.178 54.506,57.989 54.752,58.198 C55.221,58.594 56.645,57.385 57.059,57.128 C58.286,56.358 59.514,55.606 60.649,54.702 C62.497,53.229 64.389,52.085 66.678,54.567 C66.414,53.057 66.03,34.555 66.129,31.859 C66.193,30.171 66.168,29.637 66.795,28.026 C67.383,26.516 68.574,25.287 69.768,24.234 C71.254,22.924 72.739,21.615 74.215,20.296 C76.908,17.892 79.236,15.234 81.25,12.236 C82.154,10.893 83.201,9.352 83.346,7.692 C83.445,6.528 82.795,4.551 81.73,3.895 Z M24.799,22.182 C29.011,22.182 32.425,18.767 32.425,14.555 C32.425,10.343 29.011,6.928 24.799,6.928 C20.585,6.928 17.171,10.343 17.171,14.555 C17.171,18.767 20.585,22.182 24.799,22.182 Z M50.34,17.027 C54.893,17.027 58.58,13.338 58.58,8.786 C58.58,4.235 54.24,0.063 49.689,0.063 C45.138,0.063 41.572,4.121 42.101,8.786 C42.611,13.309 45.791,17.027 50.34,17.027 Z M31.094,57.107 C31.236,56.538 31.855,55.736 32.965,55.867 C29.504,50.597 28.149,38.614 29.489,37.783 C30.837,36.946 38.602,37.965 42.049,35.655 C43.285,34.826 43.615,32.347 42.965,31.203 C42.267,29.973 40.916,29.912 39.638,29.814 C37.639,29.66 35.663,29.348 33.694,28.98 C27.658,27.852 21.765,26.215 16.764,22.494 C12.732,19.494 10.505,15.3 8.64,10.823 C7.565,8.243 6.567,5.627 5.198,3.181 C4.686,2.265 3.859,1.919 2.833,2.037 C1.82,2.154 1.298,2.813 0.964,3.708 C0.61,4.656 0.616,5.644 0.676,6.618 C0.801,8.728 1.085,10.829 1.535,12.895 C2.314,16.482 3.576,19.943 5.242,23.213 C6.538,25.758 8.469,28.004 9.359,30.761 C14.186,45.689 12.482,62.711 11.966,67.345 C11.752,69.255 23.26,74.31 25.592,75.378 C26.273,75.691 30.6,77.251 30.614,77.472 C33.248,75.832 38.381,71.133 39.962,68.396 C37.952,66.906 35.785,65.669 33.818,64.08 C30.576,61.459 30.832,58.164 31.094,57.107 Z" id="ShapeS"></path>
        </g>
        <g id="kid" fill-rule="nonzero" fill="#74AF10">
            <path d="M57.799,58.232 C56.408,59.273 54.752,60.17 53.096,60.699 C46.826,62.697 40.21,60.285 34.518,57.675 C33.828,57.358 33.12,57.209 32.511,57.544 C31.839,57.918 32.069,58.719 32.141,59.344 C32.251,60.281 32.684,61.1 33.353,61.767 C35.744,64.141 38.456,66.041 41.566,67.362 C43.006,67.974 42.545,70.528 42.555,71.733 C42.573,74.452 42.635,77.178 42.717,79.903 C44.211,80.032 53.707,79.793 56.819,79.212 C56.84,75.67 57.055,70.566 56.985,67.026 C56.95,65.278 57.444,65.369 58.628,64.598 C60.253,63.537 61.46,62.705 62.493,61.725 C64.173,60.133 65.362,58.45 65.173,56.004 C64.873,52.086 58.91,57.397 57.799,58.232 Z M48.014,60.427 C51.133,60.192 53.676,57.838 53.676,54.645 C53.676,51.452 51.143,48.863 48.014,48.863 C44.891,48.863 42.232,50.199 41.976,54.075 C41.766,57.262 44.059,60.728 48.014,60.427 Z" id="ShapeB"></path>
        </g>
    </g>
</svg>
